<?xml version="1.0" encoding="UTF-8"?>
<svg id="Layer_2" xmlns="http://www.w3.org/2000/svg" viewBox="0 0 164.02 160.2">
  <defs>
    <style>
      .cls-1, .cls-2 {
        fill: none;
      }

      .cls-2 {
        stroke: #000;
        stroke-miterlimit: 10;
        stroke-width: 5px;
      }
    </style>
  </defs>
  <g id="Layer_2-2" data-name="Layer_2">
    <path class="cls-1" d="M126.86,89.99H37.16c-.88,0-1.69.49-2.09,1.28l-3.38,6.59c-.8,1.56.33,3.42,2.09,3.42h96.46c1.76,0,2.89-1.86,2.09-3.42l-3.38-6.59c-.4-.78-1.21-1.28-2.09-1.28Z"/>
    <path class="cls-1" d="M144.22,123.85H19.8c-.88,0-1.69.49-2.09,1.28l-3.38,6.59c-.8,1.56.33,3.42,2.09,3.42h131.18c1.76,0,2.89-1.86,2.09-3.42l-3.38-6.59c-.4-.78-1.21-1.28-2.09-1.28Z"/>
    <path class="cls-1" d="M92.15,22.27h-20.27c-.88,0-1.69.49-2.09,1.28l-3.38,6.59c-.8,1.56.33,3.42,2.09,3.42h27.03c1.76,0,2.89-1.86,2.09-3.42l-3.38-6.59c-.4-.78-1.21-1.28-2.09-1.28Z"/>
    <path class="cls-1" d="M109.5,56.13h-54.99c-.88,0-1.69.49-2.09,1.28l-3.38,6.59c-.8,1.56.33,3.42,2.09,3.42h61.75c1.76,0,2.89-1.86,2.09-3.42l-3.38-6.59c-.4-.78-1.21-1.28-2.09-1.28Z"/>
    <path class="cls-2" d="M11.93,136.41l-9.16,17.88c-.8,1.56.33,3.42,2.09,3.42h154.32c1.76,0,2.89-1.86,2.09-3.42l-9.16-17.88c-.4-.78-1.21-1.28-2.09-1.28H14.02c-.88,0-1.69.49-2.09,1.28Z"/>
    <path class="cls-2" d="M132.65,101.27H31.37c-.88,0-1.69.49-2.09,1.28l-9.16,17.88c-.8,1.56.33,3.42,2.09,3.42h119.6c1.76,0,2.89-1.86,2.09-3.42l-9.16-17.88c-.4-.78-1.21-1.28-2.09-1.28Z"/>
    <path class="cls-2" d="M97.93,33.56h-31.85c-.88,0-1.69.49-2.09,1.28l-9.16,17.88c-.8,1.56.33,3.42,2.09,3.42h50.18c1.76,0,2.89-1.86,2.09-3.42l-9.16-17.88c-.4-.78-1.21-1.28-2.09-1.28Z"/>
    <path class="cls-2" d="M79.92,3.78l-7.73,15.08c-.8,1.56.33,3.42,2.09,3.42h15.46c1.76,0,2.89-1.86,2.09-3.42l-7.73-15.08c-.87-1.7-3.3-1.7-4.18,0Z"/>
    <path class="cls-2" d="M115.29,67.42H48.73c-.88,0-1.69.49-2.09,1.28l-9.16,17.88c-.8,1.56.33,3.42,2.09,3.42h84.89c1.76,0,2.89-1.86,2.09-3.42l-9.16-17.88c-.4-.78-1.21-1.28-2.09-1.28Z"/>
  </g>
</svg>